<svg width="68" height="67" viewBox="0 0 68 67" fill="none" xmlns="http://www.w3.org/2000/svg">
<path fill-rule="evenodd" clip-rule="evenodd" d="M67.3963 33.692C67.3951 27.2524 65.5488 20.9479 62.076 15.525C58.6032 10.1021 53.6492 5.78777 47.8006 3.09284C41.952 0.397899 35.4537 -0.564817 29.0749 0.318666C22.6962 1.20215 16.7042 3.89484 11.8082 8.07794C6.91228 12.2611 3.31741 17.7594 1.44923 23.9221C-0.418958 30.0848 -0.482242 36.6537 1.26688 42.8512C3.01601 49.0487 6.50429 54.6153 11.3188 58.892C16.1332 63.1686 22.0723 65.9762 28.4328 66.9824V43.4359H19.8744V33.692H28.4328V26.2664C28.4328 17.8222 33.465 13.1542 41.1614 13.1542C43.6889 13.1894 46.2105 13.4096 48.7058 13.8131V22.1068H44.4545C40.2708 22.1068 38.962 24.7033 38.962 27.3721V33.6935H48.3072L46.8148 43.4373H38.962V66.9854C46.8892 65.7299 54.1082 61.6869 59.3206 55.5838C64.533 49.4807 67.3966 41.7179 67.3962 33.6919L67.3963 33.692Z" fill="#FCF9F4"/>
</svg>
