<svg width="63" height="63" viewBox="0 0 63 63" fill="none" xmlns="http://www.w3.org/2000/svg">
<path d="M44.0567 5.18272C47.4904 5.19298 50.7806 6.5616 53.2086 8.98964C55.6367 11.4177 57.0053 14.7079 57.0155 18.1416V44.0567C57.0053 47.4904 55.6367 50.7806 53.2086 53.2086C50.7806 55.6367 47.4904 57.0053 44.0567 57.0155H18.1417C14.7079 57.0053 11.4178 55.6367 8.98972 53.2086C6.56168 50.7806 5.19306 47.4904 5.1828 44.0567V18.1416C5.19305 14.7079 6.56165 11.4177 8.98969 8.98964C11.4177 6.5616 14.7079 5.19298 18.1417 5.18272H44.0567ZM44.0567 0H18.1417C13.3345 0.0139827 8.72823 1.92983 5.32904 5.32901C1.92985 8.72819 0.0139933 13.3345 0 18.1416V44.0567C0.0139933 48.8638 1.92985 53.4701 5.32904 56.8693C8.72823 60.2685 13.3345 62.1843 18.1417 62.1983H44.0567C48.8638 62.1843 53.4701 60.2684 56.8692 56.8692C60.2684 53.4701 62.1842 48.8638 62.1982 44.0567V18.1416C62.1842 13.3345 60.2684 8.72822 56.8692 5.32904C53.4701 1.92986 48.8638 0.0140064 44.0567 0V0Z" fill="#FCF9F4"/>
<path d="M47.944 18.1416C46.916 18.1394 45.9308 17.7292 45.205 17.001C44.4793 16.2729 44.0722 15.2865 44.0733 14.2584C44.0744 13.2303 44.4836 12.2447 45.2109 11.5182C45.9383 10.7916 46.9243 10.3835 47.9524 10.3835C48.9805 10.3835 49.9665 10.7916 50.6939 11.5182C51.4212 12.2447 51.8304 13.2303 51.8315 14.2584C51.8326 15.2865 51.4255 16.2729 50.6997 17.001C49.974 17.7292 48.9888 18.1394 47.9608 18.1416C47.9552 18.1417 47.9495 18.1417 47.944 18.1416Z" fill="#FCF9F4"/>
<path d="M31.0992 20.7323C33.1495 20.7323 35.1538 21.3403 36.8587 22.4794C38.5635 23.6186 39.8922 25.2376 40.6769 27.1319C41.4615 29.0262 41.6668 31.1106 41.2668 33.1216C40.8668 35.1326 39.8794 36.9798 38.4296 38.4296C36.9797 39.8794 35.1326 40.8668 33.1216 41.2668C31.1106 41.6668 29.0262 41.4615 27.1319 40.6768C25.2376 39.8922 23.6185 38.5634 22.4794 36.8586C21.3403 35.1538 20.7323 33.1495 20.7323 31.0991C20.7323 29.7377 21.0004 28.3896 21.5214 27.1319C22.0424 25.8741 22.806 24.7313 23.7687 23.7686C24.7313 22.806 25.8742 22.0424 27.1319 21.5214C28.3897 21.0004 29.7378 20.7323 31.0992 20.7323V20.7323ZM31.0992 15.5496C28.0238 15.5496 25.0174 16.4615 22.4603 18.1701C19.9032 19.8787 17.9101 22.3072 16.7332 25.1485C15.5563 27.9898 15.2484 31.1163 15.8483 34.1326C16.4483 37.1489 17.9293 39.9196 20.1039 42.0943C22.2785 44.2689 25.0492 45.7499 28.0655 46.3499C31.0818 46.9499 34.2083 46.6419 37.0496 45.465C39.8909 44.2881 42.3194 42.2951 44.0281 39.738C45.7367 37.1809 46.6487 34.1746 46.6487 31.0992C46.6487 26.9752 45.0104 23.0201 42.0943 20.104C39.1782 17.1879 35.2231 15.5496 31.0992 15.5496V15.5496Z" fill="#FCF9F4"/>
</svg>
