<svg width="565" height="793" viewBox="0 0 565 793" fill="none" xmlns="http://www.w3.org/2000/svg">
<path d="M102.5 101.847C219.973 60.7022 786.922 174.927 422 201.847C57.078 228.767 335.5 675.847 422 429.347C508.5 182.847 -153.1 606.647 68.5001 595.847C290.1 585.047 373.833 678.68 388 726.847C375.5 765.18 282.2 826.947 9 767.347" stroke="black"/>
<circle cx="94.5" cy="92.5" r="16.5" fill="#C4C4C4"/>
<path d="M95.5955 89.2273V96.5H94.4947V90.3281H94.4521L92.712 91.4645V90.4134L94.5266 89.2273H95.5955Z" fill="#333333"/>
<circle cx="16.5" cy="766.5" r="16.5" fill="#C4C4C4"/>
<path d="M16.5599 770.599C16.2356 770.595 15.916 770.536 15.6011 770.422C15.2886 770.308 15.0045 770.119 14.7488 769.854C14.4932 769.589 14.2884 769.232 14.1345 768.785C13.983 768.337 13.9072 767.779 13.9072 767.109C13.9072 766.474 13.97 765.911 14.0954 765.418C14.2233 764.926 14.4068 764.51 14.6459 764.172C14.885 763.831 15.1738 763.572 15.5123 763.394C15.8509 763.217 16.2309 763.128 16.6523 763.128C17.0855 763.128 17.4702 763.213 17.8064 763.384C18.1425 763.554 18.4148 763.79 18.6231 764.09C18.8338 764.391 18.9676 764.733 19.0244 765.116H17.9413C17.8679 764.813 17.7223 764.566 17.5045 764.374C17.2867 764.183 17.0026 764.087 16.6523 764.087C16.1196 764.087 15.7041 764.319 15.4058 764.783C15.1099 765.247 14.9607 765.892 14.9584 766.718H15.0116C15.1371 766.512 15.291 766.337 15.4733 766.192C15.6579 766.046 15.8639 765.933 16.0912 765.855C16.3208 765.775 16.5623 765.734 16.8156 765.734C17.237 765.734 17.6182 765.837 17.9591 766.043C18.3023 766.247 18.5758 766.529 18.7794 766.888C18.983 767.248 19.0848 767.66 19.0848 768.124C19.0848 768.588 18.9794 769.009 18.7687 769.385C18.5604 769.761 18.2668 770.06 17.8881 770.28C17.5093 770.498 17.0666 770.604 16.5599 770.599ZM16.5564 769.676C16.8357 769.676 17.0855 769.607 17.3057 769.47C17.5258 769.333 17.6998 769.148 17.8277 768.916C17.9555 768.684 18.0194 768.425 18.0194 768.138C18.0194 767.859 17.9567 767.605 17.8312 767.375C17.7081 767.145 17.5377 766.963 17.3199 766.828C17.1044 766.693 16.8582 766.626 16.5812 766.626C16.3705 766.626 16.1752 766.666 15.9953 766.746C15.8177 766.827 15.6615 766.938 15.5265 767.08C15.3916 767.222 15.2851 767.386 15.2069 767.57C15.1312 767.753 15.0933 767.946 15.0933 768.149C15.0933 768.421 15.156 768.674 15.2815 768.906C15.4094 769.138 15.5834 769.325 15.8035 769.467C16.0261 769.606 16.277 769.676 16.5564 769.676Z" fill="#333333"/>
<circle cx="393.5" cy="711.5" r="16.5" fill="#C4C4C4"/>
<path d="M393.5 715.599C393.054 715.599 392.654 715.514 392.299 715.344C391.947 715.171 391.665 714.934 391.454 714.634C391.243 714.333 391.131 713.99 391.117 713.604H392.182C392.208 713.916 392.347 714.173 392.598 714.374C392.849 714.576 393.149 714.676 393.5 714.676C393.779 714.676 394.026 714.612 394.242 714.484C394.46 714.354 394.63 714.175 394.753 713.948C394.879 713.721 394.941 713.462 394.941 713.17C394.941 712.875 394.877 712.611 394.75 712.379C394.622 712.147 394.445 711.964 394.22 711.832C393.998 711.699 393.742 711.632 393.453 711.629C393.233 711.629 393.012 711.667 392.789 711.743C392.567 711.819 392.387 711.918 392.25 712.041L391.245 711.892L391.653 708.227H395.652V709.168H392.566L392.335 711.203H392.377C392.519 711.066 392.708 710.951 392.942 710.859C393.179 710.766 393.432 710.72 393.702 710.72C394.145 710.72 394.539 710.826 394.884 711.036C395.233 711.247 395.506 711.535 395.705 711.899C395.906 712.261 396.005 712.678 396.003 713.149C396.005 713.62 395.899 714.04 395.684 714.41C395.47 714.779 395.175 715.07 394.796 715.283C394.419 715.494 393.987 715.599 393.5 715.599Z" fill="#333333"/>
<circle cx="34.5" cy="558.5" r="16.5" fill="#C4C4C4"/>
<path d="M31.7754 561.08V560.192L34.9181 555.227H35.6177V556.534H35.1738L32.926 560.092V560.149H37.2335V561.08H31.7754ZM35.2235 562.5V560.81L35.2306 560.405V555.227H36.2711V562.5H35.2235Z" fill="#333333"/>
<circle cx="430.5" cy="412.5" r="16.5" fill="#C4C4C4"/>
<path d="M430.509 416.599C430.021 416.599 429.586 416.515 429.202 416.347C428.821 416.179 428.519 415.946 428.297 415.648C428.076 415.347 427.958 414.999 427.941 414.604H429.056C429.071 414.819 429.143 415.006 429.273 415.165C429.406 415.321 429.578 415.442 429.792 415.527C430.005 415.612 430.241 415.655 430.502 415.655C430.788 415.655 431.042 415.605 431.262 415.506C431.484 415.406 431.658 415.268 431.784 415.09C431.909 414.91 431.972 414.703 431.972 414.469C431.972 414.225 431.909 414.011 431.784 413.826C431.661 413.639 431.48 413.492 431.24 413.386C431.004 413.279 430.717 413.226 430.381 413.226H429.767V412.331H430.381C430.651 412.331 430.888 412.282 431.091 412.185C431.297 412.088 431.458 411.953 431.574 411.781C431.69 411.605 431.748 411.401 431.748 411.166C431.748 410.941 431.697 410.746 431.596 410.58C431.496 410.412 431.354 410.281 431.169 410.186C430.987 410.091 430.772 410.044 430.523 410.044C430.286 410.044 430.065 410.088 429.859 410.175C429.655 410.261 429.49 410.384 429.362 410.545C429.234 410.703 429.165 410.894 429.156 411.116H428.094C428.106 410.723 428.222 410.378 428.442 410.08C428.665 409.781 428.958 409.548 429.323 409.38C429.687 409.212 430.092 409.128 430.537 409.128C431.004 409.128 431.406 409.219 431.745 409.401C432.086 409.581 432.348 409.821 432.533 410.122C432.72 410.423 432.812 410.752 432.81 411.109C432.812 411.517 432.699 411.862 432.469 412.146C432.242 412.43 431.939 412.621 431.56 412.718V412.775C432.043 412.848 432.417 413.04 432.682 413.35C432.95 413.66 433.082 414.045 433.08 414.504C433.082 414.904 432.971 415.263 432.746 415.58C432.524 415.897 432.219 416.147 431.833 416.33C431.448 416.509 431.006 416.599 430.509 416.599Z" fill="#333333"/>
<circle cx="548.5" cy="153.5" r="16.5" fill="#C4C4C4"/>
<path d="M546.133 157.5V156.705L548.594 154.155C548.857 153.878 549.074 153.635 549.244 153.427C549.417 153.216 549.546 153.016 549.631 152.827C549.716 152.637 549.759 152.436 549.759 152.223C549.759 151.982 549.702 151.773 549.588 151.598C549.475 151.42 549.32 151.284 549.123 151.19C548.927 151.093 548.705 151.044 548.459 151.044C548.199 151.044 547.971 151.097 547.777 151.204C547.583 151.31 547.434 151.461 547.33 151.655C547.226 151.849 547.174 152.076 547.174 152.337H546.126C546.126 151.894 546.228 151.507 546.431 151.175C546.635 150.844 546.914 150.587 547.27 150.405C547.625 150.22 548.028 150.128 548.48 150.128C548.937 150.128 549.34 150.219 549.688 150.401C550.038 150.581 550.312 150.827 550.508 151.14C550.705 151.45 550.803 151.8 550.803 152.191C550.803 152.461 550.752 152.725 550.65 152.983C550.551 153.241 550.377 153.529 550.128 153.846C549.88 154.161 549.534 154.543 549.091 154.993L547.646 156.506V156.559H550.92V157.5H546.133Z" fill="#333333"/>
<path d="M289.869 0.722412V76.9322M289.869 76.9322C271.52 79.7103 261.478 80.179 244 79.0993V93.9079C244 93.9079 248.903 95.6491 289.869 93.9079C330.835 92.1666 328.2 81.9682 332.182 71.8756L289.869 76.9322Z" stroke="black"/>
<path d="M289.513 63.9296H244M244 63.9296C265.185 41.8573 274.122 27.1433 289.513 0.722412C308.931 13.0433 334.873 45.0371 332.893 57.0671C330.913 69.0971 305.628 65.8917 289.513 76.2099M244 63.9296C275.072 57.0831 289.853 62.0127 289.513 57.0671" stroke="black"/>
</svg>
