<svg width="300" height="300" viewBox="0 0 300 300" fill="none" xmlns="http://www.w3.org/2000/svg">
<path d="M150 10L192.793 102.834L290 116.953L219.253 188.444L236.52 290L150 241.338L63.4683 290L80.7467 188.444L10 116.953L107.207 102.834L150 10Z" fill="#FFC403"/>
<g opacity="0.5">
<path opacity="0.5" d="M150 240C191.421 240 225 206.421 225 165C225 123.579 191.421 90 150 90C108.579 90 75 123.579 75 165C75 206.421 108.579 240 150 240Z" fill="url(#paint0_linear_212_1319)"/>
</g>
<path d="M150.146 237.939C190.694 237.939 223.565 205.069 223.565 164.521C223.565 123.973 190.694 91.1025 150.146 91.1025C109.599 91.1025 76.728 123.973 76.728 164.521C76.728 205.069 109.599 237.939 150.146 237.939Z" fill="#F5F5F5"/>
<path d="M150.215 238.229C164.561 238.253 178.596 234.052 190.571 226.152C187.865 211.367 177.569 210.524 177.569 210.524H120.793C120.793 210.524 111.077 211.322 108.043 224.923C120.389 233.607 135.121 238.255 150.215 238.229Z" fill="#114B5F"/>
<path d="M149.435 198.411C169.006 198.411 184.872 182.545 184.872 162.974C184.872 143.402 169.006 127.537 149.435 127.537C129.864 127.537 113.998 143.402 113.998 162.974C113.998 182.545 129.864 198.411 149.435 198.411Z" fill="#333333"/>
<path opacity="0.1" d="M137.998 192.49H160.704V210.655C160.704 213.666 159.509 216.553 157.381 218.682C155.252 220.811 152.366 222.007 149.356 222.008C146.344 222.008 143.457 220.812 141.328 218.683C139.198 216.554 138.002 213.666 138.002 210.655V192.49H137.998Z" fill="black"/>
<path d="M138.718 191.647H159.993C160.184 191.647 160.367 191.723 160.502 191.858C160.637 191.993 160.713 192.176 160.713 192.367V209.813C160.713 211.304 160.419 212.781 159.849 214.159C159.278 215.537 158.441 216.789 157.387 217.844C156.332 218.898 155.08 219.735 153.702 220.305C152.324 220.875 150.847 221.169 149.355 221.168C146.344 221.168 143.456 219.972 141.327 217.843C139.198 215.714 138.002 212.826 138.002 209.815V192.367C138.002 192.177 138.077 191.995 138.211 191.86C138.345 191.725 138.527 191.649 138.718 191.647Z" fill="#FDB797"/>
<path opacity="0.1" d="M138.039 201.064C145.357 203.798 153.412 203.821 160.745 201.127V198.333H138.039V201.064Z" fill="black"/>
<path d="M149.435 202.584C167.41 202.584 181.981 188.012 181.981 170.037C181.981 152.062 167.41 137.491 149.435 137.491C131.46 137.491 116.888 152.062 116.888 170.037C116.888 188.012 131.46 202.584 149.435 202.584Z" fill="#FDB797"/>
<path opacity="0.1" d="M126.251 140.433C126.251 140.433 139.969 168.275 178.661 152.106L169.653 137.981L153.683 132.25L126.251 140.433Z" fill="black"/>
<path d="M126.251 140.025C126.251 140.025 139.969 167.867 178.661 151.694L169.653 137.568L153.683 131.837L126.251 140.025Z" fill="#333333"/>
<path d="M126.131 138.137C127.056 135.274 128.654 132.675 130.792 130.558C137.194 124.229 147.69 122.895 153.073 115.678C154.362 117.681 153.365 120.761 151.139 121.62C156.297 121.586 162.273 121.135 165.189 116.892C165.91 118.57 166.14 120.418 165.852 122.221C165.564 124.024 164.77 125.709 163.562 127.079C168.133 127.294 173.018 130.388 173.306 134.955C173.504 137.998 171.587 140.877 169.096 142.622C166.605 144.367 163.571 145.169 160.595 145.824C151.904 147.743 120.46 155.774 126.131 138.137Z" fill="#333333"/>
<path d="M116.876 175.685C118.548 175.685 119.904 173.143 119.904 170.007C119.904 166.872 118.548 164.33 116.876 164.33C115.203 164.33 113.848 166.872 113.848 170.007C113.848 173.143 115.203 175.685 116.876 175.685Z" fill="#FDB797"/>
<path d="M181.977 175.685C183.649 175.685 185.005 173.143 185.005 170.007C185.005 166.872 183.649 164.33 181.977 164.33C180.305 164.33 178.949 166.872 178.949 170.007C178.949 173.143 180.305 175.685 181.977 175.685Z" fill="#FDB797"/>
<defs>
<linearGradient id="paint0_linear_212_1319" x1="150" y1="240" x2="150" y2="90" gradientUnits="userSpaceOnUse">
<stop stop-color="#808080" stop-opacity="0.25"/>
<stop offset="0.54" stop-color="#808080" stop-opacity="0.12"/>
<stop offset="1" stop-color="#808080" stop-opacity="0.1"/>
</linearGradient>
</defs>
</svg>
