<svg width="62" height="51" viewBox="0 0 62 51" fill="none" xmlns="http://www.w3.org/2000/svg">
<path d="M55.2304 8.59143L61.3671 7.36411C61.3671 7.36411 56.2123 13.1326 55.2304 13.5008C55.1388 14.7264 55.1388 15.9572 55.2304 17.1828C43.4479 67.7493 0 45.4117 0 45.4117C15.8327 45.7799 17.1828 39.275 17.1828 39.275C7.97774 37.9249 6.13672 31.9109 6.13672 31.9109C6.9626 32.3466 7.92018 32.4623 8.82605 32.2358C9.73192 32.0094 10.5224 31.4567 11.0461 30.6836C1.1046 28.1062 2.45465 18.4102 2.45465 18.4102C4.22663 19.6895 6.29744 20.4925 8.46869 20.7422C7.36409 19.3921 -1.96371 8.22322 3.68207 2.45474C3.68207 2.45474 10.5552 14.7282 28.597 15.8328L29.8244 15.5872C29.6157 14.7033 29.5331 13.7942 29.5789 12.8871C29.5789 9.46925 30.9367 6.19137 33.3535 3.77457C35.7703 1.35777 39.0481 5.30432e-06 42.466 0V0C51.0574 0 52.8984 4.90936 52.8984 4.90936L59.0351 1.22739C58.9124 1.2274 58.2988 7.36408 55.2304 8.59143Z" fill="#FCF9F4"/>
</svg>
