<svg width="383" height="283" viewBox="0 0 383 283" fill="none" xmlns="http://www.w3.org/2000/svg">
<path d="M30.6031 61.3378C47.5048 61.3378 61.2062 47.6069 61.2062 30.6689C61.2062 13.7309 47.5048 0 30.6031 0C13.7015 0 0 13.7309 0 30.6689C0 47.6069 13.7015 61.3378 30.6031 61.3378Z" fill="#FF6584"/>
<path d="M181.93 283C265.623 283 333.469 277.034 333.469 269.675C333.469 262.316 265.623 256.35 181.93 256.35C98.2381 256.35 30.3921 262.316 30.3921 269.675C30.3921 277.034 98.2381 283 181.93 283Z" fill="#3F3D56"/>
<path d="M232.795 260.58H231.528C231.528 217.97 239.184 177.923 253.087 147.818C267.061 117.556 285.714 100.89 305.609 100.89V102.159C265.459 102.159 232.795 173.226 232.795 260.58Z" fill="#3F3D56"/>
<path d="M333.047 63.6645C333.047 73.5936 328.7 86.296 323.338 86.296C317.976 86.296 313.629 73.5936 313.629 63.6645C313.629 53.7353 317.976 50.3394 323.338 50.3394C328.7 50.3394 333.047 53.7353 333.047 63.6645Z" fill="#E6E6E6"/>
<path d="M371.148 106.022C361.348 107.483 348.172 105.044 347.382 99.7286C346.593 94.4137 358.491 88.2358 368.291 86.7747C378.091 85.3135 382.082 89.1223 382.871 94.4372C383.66 99.7521 380.948 104.561 371.148 106.022Z" fill="#E6E6E6"/>
<path d="M327.718 143.795C324.214 134.507 323.796 121.085 328.811 119.185C333.827 117.284 342.376 127.625 345.88 136.912C349.385 146.199 346.518 150.916 341.503 152.817C336.487 154.718 331.223 153.082 327.718 143.795Z" fill="#E6E6E6"/>
<path d="M327.559 113.792C334.32 113.792 339.8 108.3 339.8 101.525C339.8 94.7495 334.32 89.2571 327.559 89.2571C320.798 89.2571 315.318 94.7495 315.318 101.525C315.318 108.3 320.798 113.792 327.559 113.792Z" fill="#114B5F"/>
<path d="M162.302 265.233H161.036C161.036 177.88 128.371 106.813 88.2212 106.813V105.543C108.117 105.543 126.769 122.209 140.743 152.471C154.646 182.577 162.302 222.624 162.302 265.233Z" fill="#3F3D56"/>
<path d="M60.7842 68.3175C60.7842 78.2467 65.1309 90.9491 70.4928 90.9491C75.8547 90.9491 80.2013 78.2467 80.2013 68.3175C80.2013 58.3884 75.8547 54.9924 70.4928 54.9924C65.1309 54.9924 60.7842 58.3884 60.7842 68.3175Z" fill="#E6E6E6"/>
<path d="M22.6823 110.675C32.4822 112.136 45.659 109.697 46.4481 104.382C47.2372 99.067 35.3397 92.8892 25.5397 91.428C15.7397 89.9668 11.7483 93.7756 10.9592 99.0906C10.1701 104.405 12.8823 109.214 22.6823 110.675Z" fill="#E6E6E6"/>
<path d="M66.1121 148.448C69.6167 139.161 70.0344 125.739 65.0192 123.838C60.0039 121.937 51.4548 132.278 47.9502 141.565C44.4456 150.852 47.3127 155.569 52.328 157.47C57.3432 159.371 62.6076 157.735 66.1121 148.448Z" fill="#E6E6E6"/>
<path d="M66.2715 118.446C73.0322 118.446 78.5128 112.953 78.5128 106.178C78.5128 99.4028 73.0322 93.9104 66.2715 93.9104C59.5109 93.9104 54.0303 99.4028 54.0303 106.178C54.0303 112.953 59.5109 118.446 66.2715 118.446Z" fill="#114B5F"/>
<path d="M77.6685 262.695V238.16C77.6685 238.16 87.377 247.043 77.6685 264.81" fill="#3F3D56"/>
<path d="M77.9891 262.059L84.8691 238.512C84.8691 238.512 91.6954 249.772 77.396 264.089" fill="#3F3D56"/>
<path d="M248.202 257.196V232.661C248.202 232.661 257.91 241.544 248.202 259.311" fill="#3F3D56"/>
<path d="M248.522 256.56L255.402 233.013C255.402 233.013 262.229 244.273 247.929 258.589" fill="#3F3D56"/>
<path d="M211.9 258.465V233.93C211.9 233.93 202.192 242.813 211.9 260.58" fill="#3F3D56"/>
<path d="M211.58 257.829L204.7 234.282C204.7 234.282 197.873 245.542 212.173 259.859" fill="#3F3D56"/>
<path d="M180.734 30.8804H180.734C185.541 30.8804 190.151 32.7939 193.55 36.2001C196.949 39.6063 198.858 44.2261 198.858 49.0432V66.8316H162.61V49.0432C162.61 46.658 163.079 44.2962 163.99 42.0926C164.901 39.889 166.236 37.8867 167.919 36.2001C169.602 34.5136 171.6 33.1757 173.799 32.2629C175.997 31.3502 178.354 30.8804 180.734 30.8804V30.8804Z" fill="#2F2E41"/>
<path d="M198.671 68.8913C192.024 73.6238 183.168 75.4491 173.634 76.3811C180.203 71.0398 177.629 65.1405 173.634 59.1545L188.208 57.6565C188.629 63.0906 192.834 66.4404 198.671 68.8913Z" fill="#FFB8B8"/>
<path d="M201.661 125.44L158.687 119.448C162.17 112.871 164.509 106.517 163.688 100.779C163.252 97.9119 163.288 94.992 163.796 92.1364L164.07 90.6748C164.639 87.8625 165.724 85.1805 167.271 82.7656C168.997 79.9788 168.402 75.7913 167.655 71.5127L177.745 70.0148C183.312 72.8488 189.562 70.9606 196.055 67.3933L208.013 68.5168C207.203 89.8719 205.422 109.459 201.661 125.44Z" fill="#E6E6E6"/>
<path d="M237.535 253.89L229.314 255.388L176.25 162.889L155.324 255.388L147.85 255.014C147.686 202.594 145.334 145.039 157.984 122.685C162.73 111.398 169.992 100.59 167.282 89.4885C177.926 92.5972 188.641 92.375 199.419 89.114C198.913 102.435 199.392 114.915 201.287 126.189L237.535 253.89Z" fill="#114B5F"/>
<path d="M235.194 278.981C233.399 278.981 231.655 278.388 230.23 277.294C228.806 276.2 227.781 274.666 227.314 272.93L226.586 270.217C226.413 269.574 226.361 268.905 226.432 268.243L227.819 255.388C230.464 252.103 234.309 251.311 239.777 253.89L243.157 269.017C243.424 270.213 243.419 271.454 243.143 272.648C242.868 273.842 242.327 274.959 241.563 275.916C240.798 276.872 239.829 277.644 238.727 278.175C237.624 278.706 236.417 278.981 235.194 278.981V278.981Z" fill="#2F2E41"/>
<path d="M152.608 278.981C150.814 278.981 149.069 278.388 147.645 277.294C146.22 276.2 145.196 274.666 144.729 272.93L144 270.217C143.828 269.574 143.776 268.905 143.847 268.243L145.234 255.388C147.878 252.103 151.723 251.311 157.192 253.89L160.571 269.017C160.838 270.213 160.834 271.454 160.558 272.648C160.282 273.842 159.742 274.959 158.977 275.916C158.213 276.872 157.244 277.644 156.141 278.175C155.039 278.706 153.831 278.981 152.608 278.981V278.981Z" fill="#2F2E41"/>
<path d="M178.866 63.6484C185.677 63.6484 191.198 58.1154 191.198 51.2901C191.198 44.4649 185.677 38.9319 178.866 38.9319C172.055 38.9319 166.534 44.4649 166.534 51.2901C166.534 58.1154 172.055 63.6484 178.866 63.6484Z" fill="#FFB8B8"/>
<path d="M169.337 93.046C169.956 93.046 170.458 92.543 170.458 91.9225C170.458 91.3021 169.956 90.7991 169.337 90.7991C168.718 90.7991 168.216 91.3021 168.216 91.9225C168.216 92.543 168.718 93.046 169.337 93.046Z" fill="#E6E6E6"/>
<path d="M197.737 93.046C198.356 93.046 198.858 92.543 198.858 91.9225C198.858 91.3021 198.356 90.7991 197.737 90.7991C197.118 90.7991 196.616 91.3021 196.616 91.9225C196.616 92.543 197.118 93.046 197.737 93.046Z" fill="#E6E6E6"/>
<path d="M186.9 49.6051L167.468 49.2603V36.4978H191.011L186.9 49.6051Z" fill="#2F2E41"/>
<path d="M194.748 66.4572H186.153C189.329 58.8514 189.05 50.8284 186.153 42.4897H194.748V66.4572Z" fill="#2F2E41"/>
<path d="M205.398 137.423L200.306 143.405C199.652 144.174 198.825 144.775 197.893 145.159C196.961 145.543 195.951 145.698 194.947 145.613C193.942 145.527 192.973 145.203 192.119 144.666C191.265 144.13 190.551 143.398 190.036 142.53V142.53C189.575 141.752 189.284 140.885 189.184 139.986C189.085 139.087 189.177 138.177 189.457 137.317C189.736 136.457 190.196 135.667 190.805 134.999C191.413 134.331 192.157 133.801 192.987 133.445L202.035 129.559L212.871 114.205L206.892 87.616L217.356 84.2456L223.335 117.95L205.398 137.423Z" fill="#FFB8B8"/>
<path d="M166.161 140.225L171.252 146.207C171.906 146.975 172.733 147.576 173.666 147.96C174.598 148.344 175.608 148.5 176.612 148.414C177.616 148.328 178.585 148.004 179.439 147.468C180.293 146.932 181.008 146.199 181.523 145.331V145.331C181.984 144.554 182.274 143.687 182.374 142.788C182.474 141.889 182.381 140.979 182.102 140.119C181.822 139.258 181.363 138.468 180.754 137.8C180.145 137.133 179.401 136.603 178.571 136.246L169.524 132.361L158.687 117.006L164.666 90.4176L154.203 87.0471L148.224 120.751L166.161 140.225Z" fill="#FFB8B8"/>
<path d="M218.85 85.7435C216.505 85.6737 214.17 86.087 211.991 86.9578C209.811 87.8287 207.833 89.1385 206.179 90.8063L202.442 68.3368L206.962 68.2837C208.805 68.3521 210.582 68.9856 212.054 70.0986C213.527 71.2116 214.623 72.7505 215.194 74.5076L218.85 85.7435Z" fill="#E6E6E6"/>
<path d="M152.708 88.545C155.053 88.4752 157.388 88.8885 159.567 89.7593C161.747 90.6302 163.725 91.94 165.379 93.6078C169.704 87.0339 170.331 79.36 169.116 71.1383L164.596 71.0852C162.753 71.1536 160.976 71.7871 159.503 72.9001C158.031 74.0131 156.935 75.552 156.364 77.3091L152.708 88.545Z" fill="#E6E6E6"/>
<path d="M197.55 90.9863H197.962L200.443 67.8958C200.45 67.8324 200.444 67.7684 200.424 67.7077C200.404 67.6471 200.372 67.5913 200.33 67.5439C200.287 67.4965 200.235 67.4586 200.177 67.4326C200.119 67.4067 200.056 67.3933 199.993 67.3933H198.004C197.883 67.3934 197.768 67.4413 197.683 67.5265C197.598 67.6116 197.55 67.7271 197.55 67.8475V90.9863Z" fill="#114B5F"/>
<path d="M168.776 92.1099H169.191L171.673 70.9742C171.679 70.9243 171.674 70.8737 171.659 70.8257C171.644 70.7778 171.619 70.7336 171.585 70.6961C171.552 70.6585 171.511 70.6285 171.465 70.6079C171.42 70.5873 171.37 70.5767 171.32 70.5767H169.132C169.038 70.5768 168.947 70.6143 168.881 70.6811C168.814 70.7479 168.776 70.8384 168.776 70.9329V92.1099Z" fill="#114B5F"/>
</svg>
