<svg width="548" height="352" viewBox="0 0 548 352" fill="none" xmlns="http://www.w3.org/2000/svg">
<path d="M522.047 351.25C428.1 311.436 343.105 312.949 263.047 337.25C139.695 315.707 55.2279 319.04 1.04724 351.25V251.25H522.047V351.25Z" fill="#CBCBCB"/>
<path d="M522.047 323.75C435.495 284.533 349.048 282.001 261.297 323.75C171.419 297.872 84.5331 298.142 0.547241 323.75V19.75C89.8412 -6.90096 176.701 -6.26052 261.297 19.75C350.659 -6.17068 437.653 -6.99276 522.047 19.75V323.75Z" fill="#E5E5E5"/>
<path d="M24.0024 57.4761L21.091 50.0244C22.2321 49.5786 49.4986 39.0376 89.5146 33.6606C126.511 28.6885 181.63 27.5015 234.127 50.0752L230.967 57.4248C180.226 35.6065 126.736 36.7554 90.7977 41.5601C51.6809 46.791 24.2747 57.3696 24.0024 57.4761Z" fill="white"/>
<path d="M24.0024 85.4761L21.091 78.0245C22.2321 77.5787 49.4986 67.0376 89.5146 61.6607C126.511 56.689 181.63 55.502 234.127 78.0752L230.967 85.4248C180.226 63.6065 126.736 64.7544 90.7977 69.5601C51.6809 74.791 24.2747 85.3697 24.0024 85.4761Z" fill="white"/>
<path d="M24.0024 113.476L21.091 106.024C22.2321 105.579 49.4986 95.0376 89.5146 89.6606C126.511 84.6885 181.63 83.5014 234.127 106.075L230.967 113.425C180.226 91.6064 126.736 92.7544 90.7977 97.5601C51.6809 102.791 24.2747 113.37 24.0024 113.476Z" fill="white"/>
<path d="M24.0024 141.476L21.091 134.024C22.2321 133.579 49.4986 123.038 89.5146 117.661C126.511 112.689 181.63 111.501 234.127 134.075L230.967 141.425C180.226 119.606 126.736 120.755 90.7977 125.56C51.6809 130.791 24.2747 141.37 24.0024 141.476Z" fill="white"/>
<path d="M24.0024 169.476L21.091 162.024C22.2321 161.579 49.4986 151.038 89.5146 145.661C126.511 140.688 181.63 139.501 234.127 162.075L230.967 169.425C180.226 147.606 126.736 148.755 90.7977 153.56C51.6809 158.791 24.2747 169.37 24.0024 169.476Z" fill="white"/>
<path d="M24.0024 197.476L21.091 190.024C22.2321 189.579 49.4986 179.038 89.5146 173.661C126.511 168.689 181.63 167.501 234.127 190.075L230.967 197.425C180.226 175.606 126.736 176.755 90.7977 181.56C51.6809 186.791 24.2747 197.37 24.0024 197.476Z" fill="white"/>
<path d="M285.002 256.476L282.091 249.024C283.232 248.579 310.499 238.038 350.515 232.661C387.511 227.689 442.63 226.501 495.127 249.075L491.967 256.425C441.226 234.606 387.736 235.755 351.798 240.56C312.681 245.791 285.275 256.37 285.002 256.476Z" fill="#114B5F"/>
<path d="M282.547 202.739V49.8091L285.355 48.9321C356.498 26.709 427.296 26.7134 495.782 48.9453L498.547 49.8428V202.535L493.135 200.492C421.865 173.594 352.875 173.578 288.079 200.445L282.547 202.739ZM388.11 172.289C421.596 172.289 455.741 178.53 490.547 191.014V55.6699C425.433 35.1353 358.17 35.1465 290.547 55.7026V190.828C321.619 178.587 354.715 172.298 388.11 172.289V172.289Z" fill="white"/>
<path d="M490.713 252.514L491.761 227.062L527.707 155.593C528.721 153.561 530.373 151.918 532.411 150.916C533.659 150.294 535.018 149.927 536.41 149.836C537.801 149.745 539.197 149.932 540.515 150.387C542.042 150.914 543.427 151.786 544.561 152.935C545.696 154.085 546.549 155.481 547.055 157.015C547.272 157.677 547.424 158.359 547.51 159.05C547.766 161.102 547.403 163.184 546.468 165.029L510.473 236.595L490.713 252.514Z" fill="#114B5F"/>
<path d="M536.888 150.315L497.868 227.895L494.893 226.399L532.632 151.365C533.955 150.703 535.409 150.344 536.888 150.315Z" fill="#3F3D56"/>
<path d="M547.014 159.114L509.482 233.737L506.507 232.24L545.446 154.821C545.925 155.552 546.306 156.342 546.58 157.172C546.787 157.803 546.932 158.454 547.014 159.114V159.114Z" fill="#3F3D56"/>
<path d="M543.278 152.455L503.827 230.892L500.852 229.396L540.352 150.86C540.773 151.004 541.184 151.177 541.581 151.377C542.181 151.68 542.749 152.041 543.278 152.455V152.455Z" fill="#3F3D56"/>
<path d="M495.226 248.237L491.256 251.434L491.589 243.005C492.952 243.478 494.428 245.53 495.226 248.237Z" fill="#3F3D56"/>
<path d="M262.297 19.75H260.297V322.788H262.297V19.75Z" fill="#CBCBCB"/>
</svg>
