<svg width="270" height="207" viewBox="0 0 270 207" fill="none" xmlns="http://www.w3.org/2000/svg">
<g clip-path="url(#clip0_97_3307)">
<path d="M167.113 166.426H8.50316C6.75662 166.424 5.08218 165.7 3.84719 164.414C2.6122 163.127 1.91751 161.382 1.91553 159.562V40.9944C1.91751 39.1746 2.6122 37.4299 3.84719 36.1431C5.08218 34.8563 6.75662 34.1324 8.50316 34.1304H167.113C168.859 34.1324 170.534 34.8563 171.769 36.1431C173.003 37.4299 173.698 39.1746 173.7 40.9944V159.562C173.698 161.382 173.003 163.127 171.769 164.414C170.534 165.7 168.859 166.424 167.113 166.426ZM8.50316 37.743C7.67586 37.744 6.88272 38.0869 6.29773 38.6965C5.71274 39.306 5.38367 40.1324 5.38271 40.9944V159.562C5.38364 160.424 5.71271 161.251 6.2977 161.86C6.8827 162.47 7.67585 162.813 8.50316 162.814H167.113C167.94 162.813 168.733 162.47 169.318 161.86C169.903 161.251 170.232 160.424 170.233 159.562V40.9944C170.232 40.1324 169.903 39.306 169.318 38.6965C168.733 38.0869 167.94 37.744 167.113 37.743H8.50316Z" fill="#E6E6E6"/>
<path d="M84.4371 207C91.485 207 97.1985 201.047 97.1985 193.703C97.1985 186.359 91.485 180.406 84.4371 180.406C77.3892 180.406 71.6758 186.359 71.6758 193.703C71.6758 201.047 77.3892 207 84.4371 207Z" fill="#E6E6E6"/>
<path d="M84.437 203.897C89.8404 203.897 94.2207 199.333 94.2207 193.703C94.2207 188.073 89.8404 183.509 84.437 183.509C79.0336 183.509 74.6533 188.073 74.6533 193.703C74.6533 199.333 79.0336 203.897 84.437 203.897Z" fill="white"/>
<path d="M89.3384 199.271C89.2799 199.271 89.2219 199.259 89.1678 199.236C89.1138 199.212 89.0647 199.178 89.0234 199.135L79.2195 188.92C79.1396 188.832 79.0957 188.715 79.0972 188.594C79.0987 188.473 79.1456 188.357 79.2277 188.272C79.3098 188.186 79.4208 188.137 79.537 188.136C79.6531 188.134 79.7653 188.18 79.8495 188.263L89.6534 198.479C89.7157 198.543 89.7581 198.626 89.7753 198.716C89.7924 198.806 89.7836 198.9 89.7499 198.984C89.7162 199.069 89.6591 199.142 89.5859 199.193C89.5126 199.244 89.4265 199.271 89.3384 199.271H89.3384Z" fill="#114B5F"/>
<path d="M89.97 194.686C90.0622 194.535 90.111 194.36 90.1105 194.181C90.11 194.002 90.0603 193.827 89.9672 193.677C89.2525 192.513 88.3105 191.519 87.2024 190.759C86.0793 189.981 84.7645 189.557 83.4159 189.539C82.7358 189.54 82.0603 189.655 81.4156 189.881C81.3976 189.887 81.3813 189.898 81.3685 189.913C81.3557 189.927 81.3467 189.945 81.3423 189.964C81.338 189.984 81.3384 190.004 81.3436 190.023C81.3489 190.042 81.3587 190.059 81.3721 190.073L82.6879 191.444C82.7017 191.458 82.7188 191.469 82.7376 191.474C82.7564 191.479 82.7761 191.479 82.795 191.474C83.4839 191.3 84.2111 191.417 84.8169 191.801C85.4226 192.185 85.8572 192.804 86.0251 193.522L86.0282 193.535C86.2557 194.645 86.7748 195.668 87.5277 196.488L87.9469 196.925C87.9666 196.945 87.9931 196.957 88.021 196.959C88.0489 196.96 88.0762 196.95 88.0976 196.932C88.826 196.285 89.4571 195.528 89.97 194.686Z" fill="#114B5F"/>
<path d="M85.4056 195.855C85.0545 195.855 84.7068 195.783 84.3824 195.643C84.058 195.503 83.7632 195.298 83.5149 195.039C83.2667 194.78 83.0697 194.473 82.9353 194.135C82.8009 193.797 82.7317 193.435 82.7317 193.069C82.7317 193.067 82.7317 193.064 82.7317 193.062C82.7375 192.818 82.6969 192.576 82.6123 192.349C82.5276 192.122 82.4006 191.915 82.2386 191.74L80.9162 190.361C80.8963 190.34 80.8697 190.328 80.8416 190.327C80.8135 190.326 80.7861 190.336 80.7647 190.355C80.0497 191.001 79.4166 191.739 78.8808 192.552C78.78 192.703 78.7245 192.881 78.7213 193.065C78.7182 193.248 78.7675 193.429 78.863 193.583C79.566 194.748 80.4991 195.744 81.6002 196.504C82.7249 197.286 84.045 197.706 85.3967 197.712C86.0837 197.71 86.7662 197.597 87.4199 197.377C87.4381 197.371 87.4545 197.36 87.4675 197.346C87.4805 197.331 87.4897 197.313 87.4942 197.294C87.4988 197.274 87.4984 197.254 87.4932 197.235C87.4881 197.216 87.4782 197.198 87.4647 197.184L86.1426 195.807C86.1289 195.793 86.1118 195.783 86.0932 195.777C86.0745 195.772 86.0549 195.772 86.0361 195.777C85.8297 195.829 85.618 195.855 85.4056 195.855Z" fill="#114B5F"/>
<path d="M36.0187 207C43.0666 207 48.78 201.047 48.78 193.703C48.78 186.359 43.0666 180.406 36.0187 180.406C28.9708 180.406 23.2573 186.359 23.2573 193.703C23.2573 201.047 28.9708 207 36.0187 207Z" fill="#E6E6E6"/>
<path d="M36.0191 203.897C41.4225 203.897 45.8028 199.333 45.8028 193.703C45.8028 188.073 41.4225 183.509 36.0191 183.509C30.6157 183.509 26.2354 188.073 26.2354 193.703C26.2354 199.333 30.6157 203.897 36.0191 203.897Z" fill="white"/>
<path d="M39.7773 200.203C39.2337 200.203 38.47 199.999 37.3264 199.333C35.905 198.541 34.6071 197.53 33.477 196.333C32.3072 195.172 31.3304 193.817 30.5862 192.323C29.5602 190.379 29.7351 189.359 29.9306 188.924C30.1563 188.447 30.5112 188.051 30.9514 187.783C31.2037 187.61 31.4707 187.463 31.749 187.342C31.7769 187.329 31.8028 187.317 31.8259 187.306C31.918 187.252 32.0202 187.219 32.1256 187.209C32.231 187.199 32.3373 187.212 32.4373 187.248C32.6596 187.36 32.8573 187.518 33.0183 187.713C33.5975 188.39 34.0862 189.146 34.471 189.96C34.6292 190.241 34.7264 190.555 34.7559 190.88C34.7328 191.201 34.6079 191.506 34.4008 191.745C34.3643 191.797 34.3281 191.847 34.293 191.895C34.0811 192.185 34.0346 192.269 34.0652 192.419C34.1273 192.72 35.0685 192.981 35.8297 193.773C36.5909 194.564 36.9479 195.65 37.2378 195.715C37.3877 195.748 37.4698 195.698 37.7573 195.469C37.7985 195.436 37.8408 195.402 37.8851 195.368C38.1154 195.142 38.4125 195.004 38.7279 194.975H38.7296C39.0457 195.009 39.3498 195.12 39.6169 195.3C40.3891 195.708 41.1106 196.212 41.7654 196.803C41.9527 196.97 42.1049 197.175 42.2124 197.406C42.2469 197.511 42.2597 197.622 42.2501 197.732C42.2405 197.842 42.2087 197.949 42.1567 198.045C42.1464 198.069 42.135 198.095 42.123 198.125C42.0058 198.414 41.8632 198.692 41.6971 198.954C41.4391 199.412 41.0578 199.781 40.6003 200.016C40.3432 200.142 40.0618 200.207 39.7773 200.203Z" fill="#114B5F"/>
<path d="M133.231 207C140.278 207 145.992 201.047 145.992 193.703C145.992 186.359 140.278 180.406 133.231 180.406C126.183 180.406 120.469 186.359 120.469 193.703C120.469 201.047 126.183 207 133.231 207Z" fill="#E6E6E6"/>
<path d="M133.23 203.897C138.634 203.897 143.014 199.333 143.014 193.703C143.014 188.073 138.634 183.509 133.23 183.509C127.827 183.509 123.447 188.073 123.447 193.703C123.447 199.333 127.827 203.897 133.23 203.897Z" fill="white"/>
<path d="M136.795 191.799C136.677 191.799 136.564 191.848 136.48 191.935C136.397 192.022 136.35 192.141 136.35 192.264V193.192C136.35 194.987 134.953 195.514 133.23 195.514C131.508 195.514 130.111 194.987 130.111 193.192V192.264C130.111 192.141 130.064 192.022 129.98 191.935C129.897 191.848 129.784 191.799 129.665 191.799C129.547 191.799 129.434 191.848 129.35 191.935C129.267 192.022 129.22 192.141 129.22 192.264V193.192C129.221 194.22 129.585 195.211 130.243 195.976C130.9 196.742 131.805 197.228 132.785 197.344V199.229C132.785 199.352 132.832 199.47 132.915 199.557C132.999 199.644 133.112 199.693 133.23 199.693H133.23C133.349 199.693 133.462 199.644 133.546 199.557C133.629 199.47 133.676 199.352 133.676 199.229V197.344C134.656 197.228 135.561 196.742 136.218 195.976C136.876 195.211 137.24 194.22 137.241 193.192V192.264C137.241 192.141 137.194 192.022 137.111 191.935C137.027 191.848 136.914 191.799 136.795 191.799Z" fill="#114B5F"/>
<path d="M133.231 194.2C132.684 194.211 132.143 194.082 131.656 193.825C131.48 193.752 131.327 193.631 131.212 193.476C131.097 193.32 131.025 193.134 131.002 192.939V191.211C130.998 190.526 131.988 189.968 133.213 189.965C133.219 189.965 133.225 189.965 133.231 189.965C134.448 189.958 135.446 190.504 135.459 191.184C135.459 191.193 135.459 191.202 135.459 191.211V192.939C135.465 193.631 134.468 194.195 133.231 194.2Z" fill="#114B5F"/>
<path d="M167.113 164.8H8.50347C7.17059 164.799 5.89274 164.246 4.95026 163.264C4.00777 162.282 3.47761 160.951 3.47607 159.562V40.9942C3.47761 39.6054 4.00777 38.2739 4.95026 37.2919C5.89274 36.3099 7.17059 35.7575 8.50347 35.7559H167.113C168.446 35.7575 169.724 36.3099 170.666 37.2919C171.609 38.2739 172.139 39.6054 172.14 40.9942V159.562C172.139 160.951 171.609 162.282 170.666 163.264C169.724 164.246 168.446 164.799 167.113 164.8Z" fill="white"/>
<path d="M87.0316 109.236C96.3036 109.236 103.82 101.404 103.82 91.7434C103.82 82.0823 96.3036 74.2505 87.0316 74.2505C77.7596 74.2505 70.2432 82.0823 70.2432 91.7434C70.2432 101.404 77.7596 109.236 87.0316 109.236Z" fill="#FFB8B8"/>
<path d="M68.3034 74.9154C68.4304 72.9066 69.7053 70.8509 73.7561 69.7768C73.7561 69.7768 80.7078 60.5143 90.1545 65.3717C90.1545 65.3717 94.7342 64.5507 98.1301 69.5017C98.1301 69.5017 101.497 67.4326 102.918 71.1C102.918 71.1 106.866 78.5807 105.413 86.211C103.959 93.8413 103.215 94.7935 103.215 94.7935C103.215 94.7935 105.068 79.0104 94.3947 80.1048C83.7216 81.1992 75.1287 77.2884 72.7117 85.8511C70.7047 92.9612 70.9575 96.6539 70.9575 96.6539C70.9575 96.6539 64.246 89.5609 66.5279 83.9757C67.6951 81.1191 68.1077 78.0134 68.3034 74.9154Z" fill="#2F2E41"/>
<path d="M41.3774 164.62H134.239C133.618 157.239 133.212 151.748 133.212 149.891C133.212 141.701 126.781 132.763 126.781 132.763L124.479 131.438L105.253 125.188L100.278 118.454C99.7568 117.747 99.0855 117.175 98.3166 116.784C97.5478 116.393 96.7023 116.193 95.8467 116.199L80.13 116.322C78.747 116.333 77.4177 116.882 76.4028 117.861L66.6705 127.269L52.3961 134.371L52.3718 134.346L52.2227 134.461L50.1043 136.051L48.7417 137.077C48.7417 137.077 45.167 141.546 42.3101 154.949C41.8802 156.965 41.5785 160.339 41.3774 164.62Z" fill="#114B5F"/>
<path d="M269.609 14.9833H0.390809C0.286381 14.9809 0.187002 14.936 0.113954 14.8582C0.0409068 14.7804 0 14.6759 0 14.5671C0 14.4583 0.0409068 14.3537 0.113954 14.276C0.187002 14.1982 0.286381 14.1533 0.390809 14.1509H269.609C269.714 14.1533 269.813 14.1982 269.886 14.276C269.959 14.3537 270 14.4583 270 14.5671C270 14.6759 269.959 14.7804 269.886 14.8582C269.813 14.936 269.714 14.9809 269.609 14.9833Z" fill="#CACACA"/>
<path d="M9.18533 9.15657C11.5591 9.15657 13.4834 7.1068 13.4834 4.57828C13.4834 2.04977 11.5591 0 9.18533 0C6.81154 0 4.88721 2.04977 4.88721 4.57828C4.88721 7.1068 6.81154 9.15657 9.18533 9.15657Z" fill="#3F3D56"/>
<path d="M24.0335 9.15657C26.4073 9.15657 28.3316 7.1068 28.3316 4.57828C28.3316 2.04977 26.4073 0 24.0335 0C21.6597 0 19.7354 2.04977 19.7354 4.57828C19.7354 7.1068 21.6597 9.15657 24.0335 9.15657Z" fill="#3F3D56"/>
<path d="M38.8816 9.15657C41.2554 9.15657 43.1797 7.1068 43.1797 4.57828C43.1797 2.04977 41.2554 0 38.8816 0C36.5078 0 34.5835 2.04977 34.5835 4.57828C34.5835 7.1068 36.5078 9.15657 38.8816 9.15657Z" fill="#3F3D56"/>
<path d="M260.713 2.80057H250.163C249.954 2.79579 249.755 2.70599 249.609 2.5504C249.463 2.39482 249.381 2.18581 249.381 1.96815C249.381 1.7505 249.463 1.54149 249.609 1.38591C249.755 1.23032 249.954 1.14052 250.163 1.13574H260.713C260.922 1.14052 261.12 1.23032 261.266 1.38591C261.413 1.54149 261.494 1.7505 261.494 1.96815C261.494 2.18581 261.413 2.39482 261.266 2.5504C261.12 2.70599 260.922 2.79579 260.713 2.80057Z" fill="#3F3D56"/>
<path d="M260.713 5.92215H250.163C249.954 5.91737 249.755 5.82757 249.609 5.67198C249.463 5.5164 249.381 5.30739 249.381 5.08974C249.381 4.87208 249.463 4.66308 249.609 4.50749C249.755 4.3519 249.954 4.2621 250.163 4.25732H260.713C260.922 4.2621 261.12 4.3519 261.266 4.50749C261.413 4.66308 261.494 4.87208 261.494 5.08974C261.494 5.30739 261.413 5.5164 261.266 5.67198C261.12 5.82757 260.922 5.91737 260.713 5.92215Z" fill="#3F3D56"/>
<path d="M260.713 9.04374H250.163C249.954 9.03896 249.755 8.94916 249.609 8.79357C249.463 8.63798 249.381 8.42898 249.381 8.21132C249.381 7.99366 249.463 7.78466 249.609 7.62907C249.755 7.47348 249.954 7.38369 250.163 7.37891H260.713C260.922 7.38369 261.12 7.47348 261.266 7.62907C261.413 7.78466 261.494 7.99366 261.494 8.21132C261.494 8.42898 261.413 8.63798 261.266 8.79357C261.12 8.94916 260.922 9.03896 260.713 9.04374Z" fill="#3F3D56"/>
<path d="M253.358 172.302H200.429C198.682 172.3 197.008 171.576 195.773 170.289C194.538 169.002 193.843 167.257 193.841 165.437V127.665C193.843 125.845 194.538 124.1 195.773 122.813C197.008 121.527 198.682 120.803 200.429 120.801H253.358C255.104 120.803 256.779 121.527 258.014 122.813C259.249 124.1 259.943 125.845 259.945 127.665V165.437C259.943 167.257 259.249 169.002 258.014 170.289C256.779 171.576 255.104 172.3 253.358 172.302ZM200.429 124.413C199.602 124.414 198.808 124.757 198.224 125.367C197.639 125.976 197.309 126.803 197.308 127.665V165.437C197.309 166.3 197.639 167.126 198.224 167.735C198.808 168.345 199.602 168.688 200.429 168.689H253.358C254.185 168.688 254.978 168.345 255.563 167.735C256.148 167.126 256.477 166.3 256.478 165.437V127.665C256.477 126.803 256.148 125.976 255.563 125.367C254.978 124.757 254.185 124.414 253.358 124.413H200.429Z" fill="#E6E6E6"/>
<path d="M253.358 170.676H200.429C199.096 170.674 197.818 170.122 196.876 169.14C195.933 168.158 195.403 166.826 195.401 165.437V127.665C195.403 126.276 195.933 124.944 196.876 123.962C197.818 122.98 199.096 122.428 200.429 122.426H253.358C254.69 122.428 255.968 122.98 256.911 123.962C257.853 124.944 258.383 126.276 258.385 127.665V165.437C258.383 166.826 257.853 168.158 256.911 169.14C255.968 170.122 254.69 170.674 253.358 170.676Z" fill="white"/>
<path d="M231.856 134.722C232.163 132.733 231.297 131.269 229.001 130.442C226.718 128.378 223.343 127.882 221.317 131.189C220.5 131.138 219.695 131.419 219.07 131.971C218.446 132.524 218.051 133.307 217.967 134.156C216.106 136.409 218.172 144.68 218.784 147.831L222.05 147.798L228.57 147.73L231.856 147.697L233.109 140.307C233.87 138.159 233.56 136.275 231.856 134.722Z" fill="#E6E6E6"/>
<path d="M243.717 165.833C244.57 165.265 245.473 164.784 246.415 164.397L237.128 152.908L230.991 151.272C230.941 151.242 230.891 151.212 230.841 151.181L220.488 151.595L220.444 151.549L213.916 154.876L204.629 166.063C205.545 166.438 206.426 166.901 207.259 167.448L206.3 171.246H212.945L214.713 168.568H214.802C214.802 168.522 214.806 168.476 214.806 168.43L216.046 166.55C216.074 168.069 216.034 169.634 215.933 171.246H236.601C236.569 169.907 236.56 168.577 236.56 167.255L238.872 170.75C239.045 170.486 239.23 170.239 239.416 169.987L239.871 171.246H245.162L243.894 166.219C243.858 166.08 243.798 165.949 243.717 165.833Z" fill="#E6E6E6"/>
<path d="M253.358 85.2508H200.429C198.682 85.2487 197.008 84.5249 195.773 83.2381C194.538 81.9513 193.843 80.2065 193.841 78.3867V40.6141C193.843 38.7942 194.538 37.0495 195.773 35.7627C197.008 34.4759 198.682 33.7521 200.429 33.75H253.358C255.104 33.7521 256.779 34.4759 258.014 35.7627C259.249 37.0495 259.943 38.7942 259.945 40.6141V78.3867C259.943 80.2066 259.249 81.9513 258.014 83.2381C256.779 84.5249 255.104 85.2487 253.358 85.2508ZM200.429 37.3627C199.602 37.3637 198.808 37.7065 198.224 38.3161C197.639 38.9256 197.309 39.752 197.308 40.6141V78.3867C197.309 79.2487 197.639 80.0752 198.224 80.6847C198.808 81.2942 199.602 81.6371 200.429 81.6381H253.358C254.185 81.6371 254.978 81.2942 255.563 80.6847C256.148 80.0752 256.477 79.2487 256.478 78.3867V40.6141C256.477 39.752 256.148 38.9256 255.563 38.3161C254.978 37.7065 254.185 37.3637 253.358 37.3627H200.429Z" fill="#E6E6E6"/>
<path d="M253.358 83.6254H200.429C199.096 83.6238 197.818 83.0714 196.876 82.0893C195.933 81.1073 195.403 79.7758 195.401 78.387V40.6143C195.403 39.2255 195.933 37.8941 196.876 36.912C197.818 35.93 199.096 35.3776 200.429 35.376H253.358C254.69 35.3776 255.968 35.93 256.911 36.912C257.853 37.8941 258.383 39.2255 258.385 40.6143V78.387C258.383 79.7758 257.853 81.1073 256.911 82.0893C255.968 83.0714 254.69 83.6238 253.358 83.6254Z" fill="white"/>
<path d="M220.208 54.0002C220.366 55.6793 221.082 57.2483 222.23 58.4375C223.379 59.6267 224.889 60.3618 226.502 60.5162C228.114 60.6707 229.728 60.2349 231.066 59.2839C232.403 58.3328 233.381 56.9259 233.83 55.3051C234.056 55.0602 236.556 52.2768 235.651 50.0625C235.204 48.8611 234.955 47.5898 234.914 46.3021C234.861 45.4683 234.332 44.6152 232.651 44.1693C232.651 44.1693 229.766 40.325 225.845 42.341C225.845 42.341 223.944 42.0003 222.535 44.0552C222.535 44.0552 221.137 43.1964 220.548 44.7185C220.548 44.7185 218.909 47.8233 219.512 50.9902C219.689 52.0064 219.922 53.0114 220.208 54.0002Z" fill="#E6E6E6"/>
<path d="M245.702 80.2696C244.517 74.7069 243.033 72.8521 243.033 72.8521L242.467 72.4263L241.588 71.7665L241.526 71.7186L241.516 71.7291L235.592 68.7813L231.553 64.8768C231.131 64.4705 230.58 64.2427 230.006 64.2381L223.483 64.1871C223.127 64.1842 222.777 64.2673 222.457 64.4296C222.138 64.592 221.86 64.8292 221.643 65.1227L219.578 67.9176L211.599 70.5115L210.644 71.0618C210.644 71.0618 207.974 74.7713 207.974 78.1705C207.974 78.9412 207.806 81.2203 207.548 84.2835H246.089C246.055 82.9375 245.926 81.5959 245.702 80.2696Z" fill="#E6E6E6"/>
<path d="M220.319 136.261H151.12C148.837 136.259 146.648 135.312 145.033 133.63C143.419 131.947 142.51 129.666 142.508 127.287V77.9033C142.51 75.524 143.419 73.243 145.033 71.5606C146.648 69.8783 148.837 68.9319 151.12 68.9292H220.319C222.603 68.9319 224.792 69.8783 226.407 71.5606C228.021 73.243 228.93 75.524 228.932 77.9033V127.287C228.929 129.666 228.021 131.947 226.407 133.63C224.792 135.312 222.603 136.259 220.319 136.261ZM151.12 73.6524C150.039 73.6537 149.002 74.102 148.237 74.8989C147.472 75.6958 147.042 76.7763 147.041 77.9033V127.287C147.042 128.414 147.472 129.495 148.237 130.292C149.002 131.089 150.039 131.537 151.12 131.538H220.319C221.401 131.537 222.438 131.089 223.203 130.292C223.968 129.495 224.398 128.414 224.399 127.287V77.9033C224.398 76.7763 223.968 75.6958 223.203 74.8989C222.438 74.102 221.401 73.6537 220.319 73.6524H151.12Z" fill="#E6E6E6"/>
<path d="M220.318 71.0542H151.121C149.378 71.0566 147.707 71.7792 146.474 73.0634C145.242 74.3476 144.548 76.0886 144.546 77.9048V127.289C144.548 129.105 145.242 130.845 146.475 132.129C147.707 133.412 149.378 134.134 151.121 134.136H220.318C222.061 134.134 223.732 133.412 224.965 132.129C226.197 130.845 226.891 129.105 226.893 127.289V77.9048C226.891 76.0886 226.197 74.3476 224.965 73.0634C223.732 71.7792 222.061 71.0566 220.318 71.0542Z" fill="white"/>
<path d="M197.893 91.6992C200.878 91.6992 203.297 89.1783 203.297 86.0686C203.297 82.9589 200.878 80.438 197.893 80.438C194.909 80.438 192.489 82.9589 192.489 86.0686C192.489 89.1783 194.909 91.6992 197.893 91.6992Z" fill="#2F2E41"/>
<path d="M186.792 110.833C194.352 110.833 200.482 104.446 200.482 96.5684C200.482 88.6905 194.352 82.3042 186.792 82.3042C179.231 82.3042 173.102 88.6905 173.102 96.5684C173.102 104.446 179.231 110.833 186.792 110.833Z" fill="#2F2E41"/>
<path d="M184.414 111.7C190.557 111.7 195.538 106.511 195.538 100.109C195.538 93.7072 190.557 88.5176 184.414 88.5176C178.27 88.5176 173.289 93.7072 173.289 100.109C173.289 106.511 178.27 111.7 184.414 111.7Z" fill="#9E616A"/>
<path d="M180.219 85.6735C182.38 84.9062 184.7 84.758 186.934 85.2443C189.169 85.7306 191.238 86.8335 192.923 88.4378C194.609 90.0422 195.85 92.0889 196.517 94.364C197.183 96.6392 197.251 99.0592 196.713 101.371C190.871 101.535 184.821 101.294 179.393 97.7165L178.759 93.8397L177.177 97.2053C175.217 97.5537 173.277 97.7833 171.779 95.9452C172.2 93.6131 173.201 91.4371 174.682 89.6345C176.163 87.832 178.073 86.4661 180.219 85.6735Z" fill="#2F2E41"/>
<path d="M205.992 72.288C210.012 71.3915 214.414 73.2708 216.867 76.7078C219.32 80.1448 219.814 84.9269 218.344 88.9269C216.844 93.0076 213.606 96.07 210.578 99.0934C207.551 102.117 204.503 105.492 203.594 109.758C202.939 112.831 203.481 116.048 205.1 118.705C206.718 121.362 209.283 123.242 212.23 123.932C208.438 124.681 204.488 125.426 200.764 124.369C197.04 123.312 193.634 119.876 193.848 115.861C194.002 112.968 195.897 110.551 197.546 108.218C200.232 104.415 202.468 100.289 204.205 95.9286C205.034 93.8474 205.759 91.6254 205.526 89.3851C205.316 87.7163 204.597 86.162 203.475 84.9513C202.353 83.7407 200.887 82.9377 199.294 82.661L198.3 81.2069C198.631 76.9375 201.973 73.1844 205.992 72.288Z" fill="#2F2E41"/>
<path d="M209.936 133.817C209.216 126.167 205.145 126.467 205.145 126.467L194.395 124.278L189.686 116.133L177.866 115.652L173.658 123.34L165.012 124.466L165.005 124.594C164.148 124.661 161.057 125.367 160.437 131.94C160.379 132.544 160.3 133.284 160.199 134.136H209.969C209.958 134.023 209.947 133.918 209.936 133.817Z" fill="#2F2E41"/>
</g>
<defs>
<clipPath id="clip0_97_3307">
<rect width="270" height="207" fill="white"/>
</clipPath>
</defs>
</svg>
