<svg width="300" height="212" viewBox="0 0 300 212" fill="none" xmlns="http://www.w3.org/2000/svg">
<path d="M256.121 185.515H44.1089C42.2235 185.515 40.4153 184.754 39.0821 183.4C37.749 182.046 37 180.21 37 178.295C113.854 169.223 189.264 169.223 263.229 178.295C263.229 180.21 262.481 182.046 261.147 183.4C259.814 184.754 258.006 185.515 256.121 185.515Z" fill="#2F2E41"/>
<path d="M263.229 178.719L37 178.295L63.2192 133.486L63.3446 133.273V34.5195C63.3446 33.3209 63.5769 32.1339 64.0285 31.0265C64.4801 29.919 65.142 28.9128 65.9765 28.0652C66.811 27.2176 67.8017 26.5453 68.892 26.0867C69.9823 25.628 71.151 25.392 72.3311 25.3921H226.644C227.824 25.392 228.993 25.628 230.083 26.0867C231.173 26.5453 232.164 27.2176 232.998 28.0652C233.833 28.9128 234.495 29.919 234.946 31.0265C235.398 32.1339 235.63 33.3209 235.63 34.5195V133.953L263.229 178.719Z" fill="#3F3D56"/>
<path d="M72.1264 31.7632C71.3503 31.7641 70.6063 32.0776 70.0575 32.635C69.5088 33.1923 69.2001 33.948 69.1992 34.7363V124.779C69.2001 125.567 69.5088 126.323 70.0576 126.88C70.6063 127.438 71.3503 127.751 72.1264 127.752H228.103C228.88 127.751 229.624 127.437 230.172 126.88C230.721 126.323 231.03 125.567 231.031 124.779V34.7363C231.03 33.9481 230.721 33.1924 230.172 32.635C229.624 32.0776 228.88 31.7641 228.103 31.7632H72.1264Z" fill="white"/>
<path d="M72.7799 139.645C72.5401 139.645 72.3054 139.715 72.1034 139.846C71.9015 139.978 71.7407 140.165 71.6401 140.386L63.5612 158.225C63.4732 158.419 63.4347 158.632 63.4493 158.846C63.4638 159.059 63.531 159.265 63.6445 159.445C63.7579 159.625 63.9142 159.773 64.0987 159.875C64.2833 159.978 64.4903 160.032 64.7007 160.032H234.597C234.811 160.032 235.021 159.976 235.208 159.87C235.394 159.764 235.552 159.612 235.664 159.427C235.776 159.242 235.84 159.032 235.85 158.815C235.86 158.598 235.814 158.382 235.719 158.187L226.937 140.349C226.833 140.137 226.673 139.958 226.475 139.834C226.277 139.709 226.048 139.644 225.815 139.645H72.7799Z" fill="#2F2E41"/>
<path d="M149.487 30.2767C150.527 30.2767 151.369 29.421 151.369 28.3654C151.369 27.3098 150.527 26.4541 149.487 26.4541C148.448 26.4541 147.605 27.3098 147.605 28.3654C147.605 29.421 148.448 30.2767 149.487 30.2767Z" fill="white"/>
<path d="M132.788 163.429C132.513 163.43 132.245 163.522 132.026 163.692C131.807 163.863 131.649 164.102 131.577 164.372L129.551 172.017C129.5 172.206 129.494 172.404 129.531 172.596C129.569 172.788 129.649 172.968 129.766 173.124C129.883 173.279 130.034 173.405 130.207 173.491C130.379 173.578 130.569 173.623 130.762 173.623H169.302C169.502 173.623 169.699 173.574 169.877 173.481C170.054 173.388 170.208 173.253 170.324 173.088C170.44 172.922 170.515 172.731 170.543 172.53C170.572 172.329 170.552 172.124 170.487 171.932L167.881 164.287C167.796 164.036 167.636 163.819 167.423 163.666C167.211 163.512 166.957 163.429 166.696 163.429H132.788Z" fill="#2F2E41"/>
<path d="M235.63 131.787V133.485H63.2192L63.349 133.273V131.787H235.63Z" fill="#2F2E41"/>
<path d="M210.387 97.2104H89.8426C89.2508 97.2097 88.6834 96.9706 88.2649 96.5456C87.8464 96.1205 87.611 95.5442 87.6104 94.9431V64.572C87.611 63.9709 87.8464 63.3946 88.2649 62.9696C88.6834 62.5445 89.2508 62.3054 89.8426 62.3047H210.387C210.979 62.3054 211.547 62.5445 211.965 62.9696C212.384 63.3946 212.619 63.9709 212.62 64.572V94.9431C212.619 95.5442 212.384 96.1205 211.965 96.5456C211.547 96.9706 210.979 97.2097 210.387 97.2104ZM89.8426 63.2116C89.4875 63.212 89.1471 63.3555 88.896 63.6105C88.6449 63.8656 88.5037 64.2113 88.5033 64.572V94.9431C88.5037 95.3038 88.6449 95.6496 88.896 95.9046C89.1471 96.1597 89.4875 96.3031 89.8426 96.3035H210.387C210.742 96.3031 211.083 96.1597 211.334 95.9046C211.585 95.6496 211.726 95.3038 211.727 94.9431V64.572C211.726 64.2113 211.585 63.8655 211.334 63.6105C211.083 63.3555 210.742 63.212 210.387 63.2116L89.8426 63.2116Z" fill="#E6E6E6"/>
<path d="M108.573 87.8282C113.595 87.8282 117.666 83.6932 117.666 78.5923C117.666 73.4915 113.595 69.3564 108.573 69.3564C103.551 69.3564 99.4795 73.4915 99.4795 78.5923C99.4795 83.6932 103.551 87.8282 108.573 87.8282Z" fill="#E6E6E6"/>
<path d="M129.574 72.4351C129.374 72.4347 129.177 72.4743 128.993 72.5515C128.809 72.6287 128.641 72.7421 128.5 72.8851C128.359 73.028 128.248 73.1978 128.171 73.3847C128.095 73.5717 128.056 73.772 128.056 73.9744C128.056 74.1767 128.095 74.3771 128.171 74.564C128.248 74.7509 128.359 74.9207 128.5 75.0637C128.641 75.2067 128.809 75.32 128.993 75.3972C129.177 75.4744 129.374 75.514 129.574 75.5137H201.02C201.422 75.5137 201.808 75.3515 202.092 75.0628C202.376 74.7741 202.536 74.3826 202.536 73.9744C202.536 73.5661 202.376 73.1746 202.092 72.8859C201.808 72.5972 201.422 72.4351 201.02 72.4351H129.574Z" fill="#E6E6E6"/>
<path d="M129.574 81.6709C129.172 81.6709 128.786 81.8331 128.502 82.1217C128.218 82.4104 128.058 82.802 128.058 83.2102C128.058 83.6185 128.218 84.01 128.502 84.2987C128.786 84.5874 129.172 84.7495 129.574 84.7495H160.317C160.719 84.7495 161.105 84.5874 161.389 84.2987C161.673 84.01 161.833 83.6185 161.833 83.2102C161.833 82.802 161.673 82.4104 161.389 82.1217C161.105 81.8331 160.719 81.6709 160.317 81.6709H129.574Z" fill="#E6E6E6"/>
</svg>
